<svg width="628" height="332" viewBox="0 0 628 332" fill="none" xmlns="http://www.w3.org/2000/svg">
<g clip-path="url(#clip0_529_312)">
<path d="M570.159 139.292C599.645 139.292 623.549 116.537 623.549 88.4686C623.549 60.3998 599.645 37.6455 570.159 37.6455C540.672 37.6455 516.769 60.3998 516.769 88.4686C516.769 116.537 540.672 139.292 570.159 139.292Z" fill="#FCF5A7"/>
<path d="M480.401 125.919C519.07 125.919 550.417 99.3749 550.417 66.6306C550.417 33.8863 519.07 7.3418 480.401 7.3418C441.731 7.3418 410.384 33.8863 410.384 66.6306C410.384 99.3749 441.731 125.919 480.401 125.919Z" fill="#FCF5A7"/>
<path d="M375.202 139.284C416.91 139.284 450.721 108.105 450.721 69.6422C450.721 31.1799 416.91 0 375.202 0C333.494 0 299.683 31.1799 299.683 69.6422C299.683 108.105 333.494 139.284 375.202 139.284Z" fill="#FCF5A7"/>
<path d="M273.149 125.926C302.635 125.926 326.539 103.172 326.539 75.1034C326.539 47.0345 302.635 24.2803 273.149 24.2803C243.662 24.2803 219.759 47.0345 219.759 75.1034C219.759 103.172 243.662 125.926 273.149 125.926Z" fill="#FCF5A7"/>
<path d="M177.438 134.392C216.107 134.392 247.454 107.848 247.454 75.1035C247.454 42.3592 216.107 15.8147 177.438 15.8147C138.768 15.8147 107.421 42.3592 107.421 75.1035C107.421 107.848 138.768 134.392 177.438 134.392Z" fill="#FCF5A7"/>
<path d="M82.5245 147.757C121.194 147.757 152.541 121.213 152.541 88.4685C152.541 55.7242 121.194 29.1797 82.5245 29.1797C43.8554 29.1797 12.5078 55.7242 12.5078 88.4685C12.5078 121.213 43.8554 147.757 82.5245 147.757Z" fill="#FCF5A7"/>
<path d="M81.7418 160.359C108.774 160.359 130.689 140.388 130.689 115.753C130.689 91.1184 108.774 71.1479 81.7418 71.1479C54.7092 71.1479 32.7949 91.1184 32.7949 115.753C32.7949 140.388 54.7092 160.359 81.7418 160.359Z" fill="#70CBD0"/>
<path d="M164.037 148.629C199.488 148.629 228.226 125.33 228.226 96.5883C228.226 67.847 199.488 44.5476 164.037 44.5476C128.585 44.5476 99.8467 67.847 99.8467 96.5883C99.8467 125.33 128.585 148.629 164.037 148.629Z" fill="#70CBD0"/>
<path d="M260.476 160.359C298.713 160.359 329.71 132.991 329.71 99.2325C329.71 65.4735 298.713 38.1064 260.476 38.1064C222.239 38.1064 191.242 65.4735 191.242 99.2325C191.242 132.991 222.239 160.359 260.476 160.359Z" fill="#70CBD0"/>
<path d="M354.037 148.622C381.069 148.622 402.984 128.651 402.984 104.016C402.984 79.3816 381.069 59.4111 354.037 59.4111C327.004 59.4111 305.09 79.3816 305.09 104.016C305.09 128.651 327.004 148.622 354.037 148.622Z" fill="#70CBD0"/>
<path d="M441.779 156.057C477.23 156.057 505.969 132.758 505.969 104.017C505.969 75.2752 477.23 51.9758 441.779 51.9758C406.328 51.9758 377.589 75.2752 377.589 104.017C377.589 132.758 406.328 156.057 441.779 156.057Z" fill="#70CBD0"/>
<path d="M528.802 167.794C564.253 167.794 592.992 144.494 592.992 115.753C592.992 87.0118 564.253 63.7124 528.802 63.7124C493.351 63.7124 464.612 87.0118 464.612 115.753C464.612 144.494 493.351 167.794 528.802 167.794Z" fill="#70CBD0"/>
<path d="M517.053 191.685C541.841 191.685 561.936 174.692 561.936 153.73C561.936 132.768 541.841 115.775 517.053 115.775C492.265 115.775 472.17 132.768 472.17 153.73C472.17 174.692 492.265 191.685 517.053 191.685Z" fill="#EF5791"/>
<path d="M441.597 181.706C474.106 181.706 500.459 161.881 500.459 137.425C500.459 112.97 474.106 93.1443 441.597 93.1443C409.089 93.1443 382.736 112.97 382.736 137.425C382.736 161.881 409.089 181.706 441.597 181.706Z" fill="#EF5791"/>
<path d="M353.151 191.692C388.214 191.692 416.638 168.403 416.638 139.673C416.638 110.944 388.214 87.6543 353.151 87.6543C318.089 87.6543 289.665 110.944 289.665 139.673C289.665 168.403 318.089 191.692 353.151 191.692Z" fill="#EF5791"/>
<path d="M267.362 181.707C292.15 181.707 312.245 164.713 312.245 143.751C312.245 122.789 292.15 105.796 267.362 105.796C242.573 105.796 222.479 122.789 222.479 143.751C222.479 164.713 242.573 181.707 267.362 181.707Z" fill="#EF5791"/>
<path d="M186.901 188.032C219.409 188.032 245.762 168.207 245.762 143.751C245.762 119.296 219.409 99.4702 186.901 99.4702C154.393 99.4702 128.04 119.296 128.04 143.751C128.04 168.207 154.393 188.032 186.901 188.032Z" fill="#EF5791"/>
<path d="M107.104 198.011C139.612 198.011 165.965 178.186 165.965 153.73C165.965 129.274 139.612 109.449 107.104 109.449C74.5962 109.449 48.2432 129.274 48.2432 153.73C48.2432 178.186 74.5962 198.011 107.104 198.011Z" fill="#EF5791"/>
<path d="M0 332.144C0.403213 311.162 1.36776 289.712 1.78679 268.486C0.324151 222.269 11.4086 175.626 39.0247 135.458H588.177C613.951 173.463 626.213 217.106 625.296 260.915C625.786 284.449 627.146 308.531 628 332.137H0V332.144Z" fill="#5952D6"/>
<path d="M88.7624 332.144C76.919 309.937 70.3965 285.631 70.3965 260.151V135.466H565.653V260.151C565.653 285.631 559.122 309.937 547.287 332.144" fill="#F8C3DA"/>
<path d="M318.024 165.078C303.714 184.754 272.556 221.468 215.015 251.347C154.557 282.733 95.8614 290.527 66.6798 292.885C66.6798 250.287 62.9561 178.07 62.9561 135.473H565.66L569.383 292.885C535.514 287.419 480.55 275.097 423.104 244.959C370.758 217.496 337.291 186.218 318.032 165.085L318.024 165.078Z" fill="#5952D6"/>
<path d="M207.156 313.138C236.905 313.138 261.021 301.194 261.021 286.46C261.021 271.727 236.905 259.783 207.156 259.783C177.408 259.783 153.292 271.727 153.292 286.46C153.292 301.194 177.408 313.138 207.156 313.138Z" fill="#E6E7E8"/>
<path d="M207.156 313.138C227.334 313.138 243.691 300.578 243.691 285.083C243.691 269.589 227.334 257.029 207.156 257.029C186.979 257.029 170.622 269.589 170.622 285.083C170.622 300.578 186.979 313.138 207.156 313.138Z" fill="#5952D6"/>
<path d="M151.315 285.083C149.11 269.711 166.321 259.055 180.244 254.62C204.563 246.819 239.935 249.595 257.637 268.298C259.708 270.584 261.448 273.223 262.555 276.114C263.709 278.976 264.025 282.149 263.543 285.083C263.337 286.352 262.033 287.232 260.641 287.037C259.495 286.879 258.665 286.064 258.491 285.083C256.135 275.984 246.648 271.218 237.627 268.096C216.161 261.016 182.094 261.448 163.317 274.225C159.419 276.994 156.352 280.563 155.253 285.184C154.786 287.124 151.655 287.037 151.323 285.076L151.315 285.083Z" fill="#5952D6"/>
<path d="M369.058 237.936C396.453 224.042 430.695 222.384 460.019 232.168C469.814 235.442 479.104 240.013 487.208 245.918C487.785 246.343 487.88 247.115 487.421 247.641C486.994 248.132 486.243 248.24 485.674 247.93C459.86 233.892 428.86 228.765 399.26 233.149C389.409 234.584 379.732 237.05 370.355 240.402C368.671 241.015 367.422 238.802 369.058 237.936Z" fill="#5952D6"/>
<path d="M425.176 313.138C454.925 313.138 479.04 301.194 479.04 286.46C479.04 271.727 454.925 259.783 425.176 259.783C395.428 259.783 371.312 271.727 371.312 286.46C371.312 301.194 395.428 313.138 425.176 313.138Z" fill="#E6E7E8"/>
<path d="M425.176 313.138C445.353 313.138 461.71 300.578 461.71 285.083C461.71 269.589 445.353 257.029 425.176 257.029C404.999 257.029 388.642 269.589 388.642 285.083C388.642 300.578 404.999 313.138 425.176 313.138Z" fill="#5952D6"/>
<path d="M477.055 285.083C472.509 267.923 441.675 263.337 425.175 263.532C408.889 263.467 378.292 268.219 373.841 285.083C373.612 286.41 372.196 287.311 370.757 287.008C369.698 286.792 368.947 286.006 368.789 285.083C367.706 279.113 370.536 272.826 374.703 268.298C390.657 251.426 420.511 247.828 443.272 252.328C455.361 254.837 467.204 259.61 475.371 268.558C479.427 273.035 482.163 279.236 481.024 285.076C480.637 287.117 477.435 287.088 477.063 285.076L477.055 285.083Z" fill="#5952D6"/>
<path d="M264.872 240.402C237.011 230.286 205.615 228.707 176.948 236.84C167.421 239.523 158.226 243.258 149.553 247.93C148.913 248.283 148.083 248.088 147.703 247.504C147.355 246.971 147.505 246.293 148.019 245.918C156.131 240.013 165.413 235.442 175.208 232.168C204.524 222.384 238.766 224.042 266.169 237.936C267.742 238.773 266.627 241.022 264.872 240.402Z" fill="#5952D6"/>
<path d="M213.347 280.209C218.53 280.209 222.732 276.378 222.732 271.651C222.732 266.924 218.53 263.093 213.347 263.093C208.165 263.093 203.963 266.924 203.963 271.651C203.963 276.378 208.165 280.209 213.347 280.209Z" fill="#F1F2F2"/>
<path d="M428.078 279.618C433.261 279.618 437.463 275.786 437.463 271.06C437.463 266.333 433.261 262.501 428.078 262.501C422.895 262.501 418.693 266.333 418.693 271.06C418.693 275.786 422.895 279.618 428.078 279.618Z" fill="#F1F2F2"/>
</g>
<defs>
<clipPath id="clip0_529_312">
<rect width="628" height="332" fill="white"/>
</clipPath>
</defs>
</svg>
