<svg width="206" height="189" viewBox="0 0 206 189" fill="none" xmlns="http://www.w3.org/2000/svg">
<path d="M103.643 112.108C151.942 109.835 190.785 100.023 190.402 90.1917C190.019 80.3606 150.555 74.2332 102.256 76.506C53.9574 78.7787 15.1139 88.5908 15.4969 98.422C15.8798 108.253 55.3442 114.38 103.643 112.108Z" stroke="#493880" stroke-width="4" stroke-miterlimit="10"/>
<path d="M151.127 92.0417C152.406 120.194 131.845 144.033 105.201 145.294C78.5588 146.55 55.9274 124.75 54.6488 96.5981C53.3701 68.4462 73.9305 44.6068 100.575 43.3459C127.217 42.0897 149.849 63.8898 151.127 92.0417Z" fill="#42C2F1" stroke="#493880" stroke-width="4" stroke-miterlimit="10"/>
<path d="M59.6573 111.523C73.5494 112.477 89.0377 112.809 105.857 112.018C122.673 111.224 138.072 109.429 151.815 107.169" stroke="#493880" stroke-width="4" stroke-miterlimit="10"/>
</svg>
