<svg width="279" height="400" viewBox="0 0 279 400" fill="none" xmlns="http://www.w3.org/2000/svg">
<path d="M259.085 3.49268H19.8052C10.8203 3.49268 3.53662 11.0839 3.53662 20.4482V379.358C3.53662 388.723 10.8203 396.314 19.8052 396.314H259.085C268.07 396.314 275.353 388.723 275.353 379.358V20.4482C275.353 11.0839 268.07 3.49268 259.085 3.49268Z" fill="#9EA1FF" stroke="#47478E" stroke-width="7" stroke-miterlimit="10"/>
<path d="M260.701 166.466C260.701 96.5249 206.3 39.8262 139.192 39.8262C72.0846 39.8262 17.6831 96.5249 17.6831 166.466V233.341C17.6831 303.282 72.0846 359.981 139.192 359.981C206.3 359.981 260.701 303.282 260.701 233.341V166.466Z" fill="#3E35E5"/>
<path d="M210.309 242.861L181.905 279.805L68.5908 157.641L96.9851 120.697L210.309 242.861Z" fill="#1C12D6" stroke="#191919" stroke-width="5" stroke-miterlimit="10"/>
<path d="M68.5908 242.861L96.9851 279.805L210.309 157.641L181.905 120.697L68.5908 242.861Z" fill="#1C12D6" stroke="#191919" stroke-width="5" stroke-miterlimit="10"/>
</svg>
