<svg width="118" height="91" viewBox="0 0 118 91" fill="none" xmlns="http://www.w3.org/2000/svg">
<path d="M32.8373 61.1817C33.0042 67.3884 39.2577 72.0191 46.8107 71.5222C54.3637 71.0252 60.3519 65.5913 60.1881 59.3789L32.8359 61.1775L32.8373 61.1817Z" fill="#FFEEA7" stroke="#493880" stroke-width="4" stroke-miterlimit="10" stroke-linejoin="round"/>
<path d="M65.1884 59.0562C65.3553 65.2629 71.6087 69.8937 79.1617 69.3967C86.7147 68.8997 92.7029 63.4658 92.5391 57.2534L65.187 59.052L65.1884 59.0562Z" fill="#FFEEA7" stroke="#493880" stroke-width="4" stroke-miterlimit="10" stroke-linejoin="round"/>
<path d="M48.3998 60.1599C48.5667 66.3667 54.8202 70.9974 62.3732 70.5005C69.9262 70.0035 75.9143 64.5696 75.7505 58.3572L48.3984 60.1558L48.3998 60.1599Z" fill="#FFEEA7" stroke="#493880" stroke-width="4" stroke-miterlimit="10" stroke-linejoin="round"/>
<path d="M27.7509 41.1195C27.3814 27.3423 42.4856 15.1625 61.4841 13.9113C80.4781 12.6617 96.1783 22.8175 96.5464 36.5905C86.1675 38.1917 74.6174 39.5506 62.0553 40.3732C49.5995 41.1879 38.1079 41.3461 27.7539 41.1139L27.7509 41.1195Z" fill="#FFEEA7" stroke="#493880" stroke-width="4" stroke-miterlimit="10" stroke-linejoin="round"/>
<path d="M9.82711 61.9656C15.5205 55.0602 21.2197 48.1573 26.913 41.2519C37.5185 41.5249 49.2913 41.3929 62.0515 40.555C74.9194 39.7133 86.751 38.2925 97.3821 36.6161C103.425 42.7486 109.468 48.8812 115.512 55.0137C101.118 58.5202 82.9772 61.8419 61.9472 63.1668C41.6602 64.4467 24.0017 63.5304 9.83157 61.9641L9.82711 61.9656Z" fill="#FFEEA7" stroke="#493880" stroke-width="4" stroke-miterlimit="10" stroke-linejoin="round"/>
</svg>
