<svg width="280" height="401" viewBox="0 0 280 401" fill="none" xmlns="http://www.w3.org/2000/svg">
<path d="M259.263 4.23169H19.9834C10.9985 4.23169 3.71484 11.823 3.71484 21.1873V380.098C3.71484 389.462 10.9985 397.053 19.9834 397.053H259.263C268.248 397.053 275.532 389.462 275.532 380.098V21.1873C275.532 11.823 268.248 4.23169 259.263 4.23169Z" fill="#9EA1FF" stroke="#47478E" stroke-width="7" stroke-miterlimit="10"/>
<path d="M260.88 167.205C260.88 97.2637 206.479 40.5649 139.371 40.5649C72.2633 40.5649 17.8618 97.2637 17.8618 167.205V234.079C17.8618 304.021 72.2633 360.72 139.371 360.72C206.479 360.72 260.88 304.021 260.88 234.079V167.205Z" fill="#FC5792"/>
<path d="M139.108 290.896L69.3551 218.03C52.2377 200.147 52.2377 171.154 69.3551 153.272C86.4725 135.39 114.23 135.39 131.348 153.272L201.1 226.139L139.108 290.896Z" fill="#FC5792" stroke="#4D4D4D" stroke-width="5" stroke-miterlimit="10" stroke-linejoin="round"/>
<path d="M139.249 290.896L209.002 218.03C226.119 200.147 226.119 171.154 209.002 153.272C191.885 135.39 164.127 135.39 147.01 153.272L77.2568 226.139L139.249 290.896Z" fill="#FC5792" stroke="#4D4D4D" stroke-width="5" stroke-miterlimit="10" stroke-linejoin="round"/>
</svg>
