<svg width="1440" height="1024" viewBox="0 0 1440 1024" fill="none" xmlns="http://www.w3.org/2000/svg">
<g filter="url(#filter0_f_63_44)">
<path d="M231.8 0H-12.4458V170.712H231.8V0Z" fill="#CFD8FC"/>
<path d="M720.277 341.435H476.031V512.147H720.277V341.435Z" fill="#CFD8FC"/>
<path d="M720.277 0H476.031V170.712H720.277V0Z" fill="#CFD8FC"/>
<path d="M476.031 170.712H231.785V341.424H476.031V170.712Z" fill="#CFD8FC"/>
<path d="M231.8 341.435H-12.4458V512.147H231.8V341.435Z" fill="#CFD8FC"/>
<path d="M964.523 170.712H720.277V341.424H964.523V170.712Z" fill="#CFD8FC"/>
<path d="M1453 170.712H1208.75V341.424H1453V170.712Z" fill="#CFD8FC"/>
<path d="M1208.75 341.435H964.508V512.147H1208.75V341.435Z" fill="#CFD8FC"/>
<path d="M1208.75 0H964.508V170.712H1208.75V0Z" fill="#CFD8FC"/>
<path d="M476.031 341.435H231.785V512.147H476.031V341.435Z" fill="#A5C4FC"/>
<path d="M720.277 170.712H476.031V341.424H720.277V170.712Z" fill="#A5C4FC"/>
<path d="M476.031 0H231.785V170.712H476.031V0Z" fill="#A5C4FC"/>
<path d="M231.8 170.712H-12.4458V341.424H231.8V170.712Z" fill="#A5C4FC"/>
<path d="M1453 341.435H1208.75V512.147H1453V341.435Z" fill="#A5C4FC"/>
<path d="M1208.75 170.712H964.508V341.424H1208.75V170.712Z" fill="#A5C4FC"/>
<path d="M964.523 341.435H720.277V512.147H964.523V341.435Z" fill="#A5C4FC"/>
<path d="M1453 0H1208.75V170.712H1453V0Z" fill="#A5C4FC"/>
<path d="M964.523 0H720.277V170.712H964.523V0Z" fill="#A5C4FC"/>
<path d="M1208.2 1023.99H1452.45V853.277H1208.2V1023.99Z" fill="#CFD8FC"/>
<path d="M719.723 682.565H963.969V511.853H719.723V682.565Z" fill="#CFD8FC"/>
<path d="M719.723 1023.99H963.969V853.277H719.723V1023.99Z" fill="#CFD8FC"/>
<path d="M963.954 853.288H1208.2V682.576H963.954V853.288Z" fill="#CFD8FC"/>
<path d="M1208.2 682.565H1452.45V511.853H1208.2V682.565Z" fill="#CFD8FC"/>
<path d="M475.478 853.288H719.724V682.576H475.478V853.288Z" fill="#CFD8FC"/>
<path d="M-12.9999 853.288H231.246L231.246 682.576H-12.9999L-12.9999 853.288Z" fill="#CFD8FC"/>
<path d="M231.231 682.565H475.477L475.477 511.853H231.231L231.231 682.565Z" fill="#CFD8FC"/>
<path d="M231.231 1023.99H475.477L475.477 853.277H231.231L231.231 1023.99Z" fill="#CFD8FC"/>
<path d="M963.954 682.565H1208.2V511.853H963.954V682.565Z" fill="#A5C4FC"/>
<path d="M719.723 853.288H963.969V682.576H719.723V853.288Z" fill="#A5C4FC"/>
<path d="M963.954 1023.99H1208.2V853.277H963.954V1023.99Z" fill="#A5C4FC"/>
<path d="M1208.2 853.288H1452.45V682.576H1208.2V853.288Z" fill="#A5C4FC"/>
<path d="M-12.9999 682.565H231.246L231.246 511.853H-12.9999L-12.9999 682.565Z" fill="#A5C4FC"/>
<path d="M231.231 853.288H475.477L475.477 682.576H231.231L231.231 853.288Z" fill="#A5C4FC"/>
<path d="M475.478 682.565H719.724V511.853H475.478V682.565Z" fill="#A5C4FC"/>
<path d="M-12.9999 1023.99H231.246L231.246 853.277H-12.9999L-12.9999 1023.99Z" fill="#A5C4FC"/>
<path d="M475.478 1023.99H719.724V853.277H475.478V1023.99Z" fill="#A5C4FC"/>
</g>
<defs>
<filter id="filter0_f_63_44" x="-17" y="-4" width="1474" height="1031.99" filterUnits="userSpaceOnUse" color-interpolation-filters="sRGB">
<feFlood flood-opacity="0" result="BackgroundImageFix"/>
<feBlend mode="normal" in="SourceGraphic" in2="BackgroundImageFix" result="shape"/>
<feGaussianBlur stdDeviation="2" result="effect1_foregroundBlur_63_44"/>
</filter>
</defs>
</svg>
