<svg width="280" height="401" viewBox="0 0 280 401" fill="none" xmlns="http://www.w3.org/2000/svg">
<path d="M259.548 4H20.2686C11.2837 4 4 11.5913 4 20.9556V379.866C4 389.23 11.2837 396.821 20.2686 396.821H259.548C268.533 396.821 275.817 389.23 275.817 379.866V20.9556C275.817 11.5913 268.533 4 259.548 4Z" fill="#9EA1FF" stroke="#47478E" stroke-width="7" stroke-miterlimit="10"/>
<path d="M140.727 47.105H140.616C73.508 47.105 19.1064 103.804 19.1064 173.745V240.62C19.1064 310.561 73.508 367.26 140.616 367.26H140.727C207.834 367.26 262.236 310.561 262.236 240.62V173.745C262.236 103.804 207.834 47.105 140.727 47.105Z" fill="#FFFDA4"/>
<path d="M84.1299 232.142C84.1097 245.759 95.5988 256.785 109.796 256.754C123.993 256.722 135.522 245.664 135.543 232.037L84.1299 232.142Z" fill="#FFFDA4" stroke="#4D4D4D" stroke-width="5" stroke-miterlimit="10" stroke-linejoin="round"/>
<path d="M144.94 232.015C144.92 245.633 156.409 256.659 170.606 256.627C184.803 256.596 196.333 245.538 196.353 231.91L144.94 232.015Z" fill="#FFFDA4" stroke="#4D4D4D" stroke-width="5" stroke-miterlimit="10" stroke-linejoin="round"/>
<path d="M113.373 232.078C113.353 245.696 124.842 256.722 139.039 256.69C153.236 256.659 164.766 245.601 164.786 231.973L113.373 232.078Z" fill="#FFFDA4" stroke="#4D4D4D" stroke-width="5" stroke-miterlimit="10" stroke-linejoin="round"/>
<path d="M75.6626 187.478C75.7131 157.253 104.704 132.694 140.403 132.62C176.114 132.546 205.013 156.99 204.962 187.215C185.41 189.268 163.665 190.627 140.05 190.659C116.637 190.701 95.0737 189.426 75.6626 187.468V187.478Z" fill="#FFFDA4" stroke="#4D4D4D" stroke-width="5" stroke-miterlimit="10" stroke-linejoin="round"/>
<path d="M40.9224 230.625C51.9769 216.303 63.0315 201.98 74.086 187.657C93.9721 189.753 116.061 191.101 140.05 191.059C164.23 191.017 186.511 189.574 206.539 187.383C217.543 201.664 228.557 215.944 239.561 230.225C212.379 235.891 178.165 240.62 138.635 240.567C100.51 240.525 67.427 236.038 40.9224 230.625Z" fill="#FFFDA4" stroke="#4D4D4D" stroke-width="5" stroke-miterlimit="10" stroke-linejoin="round"/>
</svg>
