<svg width="279" height="400" viewBox="0 0 279 400" fill="none" xmlns="http://www.w3.org/2000/svg">
<path d="M259.195 3.49268H19.9151C10.9302 3.49268 3.64648 11.0839 3.64648 20.4482V379.358C3.64648 388.723 10.9302 396.314 19.9151 396.314H259.195C268.18 396.314 275.463 388.723 275.463 379.358V20.4482C275.463 11.0839 268.18 3.49268 259.195 3.49268Z" fill="#9EA1FF" stroke="#47478E" stroke-width="7" stroke-miterlimit="10"/>
<path d="M260.811 166.614C260.811 96.6721 206.41 39.9734 139.302 39.9734C72.1945 39.9734 17.793 96.6721 17.793 166.614V233.488C17.793 303.429 72.1945 360.128 139.302 360.128C206.41 360.128 260.811 303.429 260.811 233.488V166.614Z" fill="#00FFEF"/>
<path d="M223.277 263.911C230.029 254.171 197.715 217.819 151.101 182.715C104.487 147.612 61.2252 127.051 54.4726 136.791C47.7201 146.531 80.0342 182.884 126.648 217.987C173.262 253.09 216.524 273.651 223.277 263.911Z" fill="#00FFEF" stroke="#4D4D4D" stroke-width="5" stroke-miterlimit="10"/>
<path d="M185.441 235.415C166.282 263.439 129.895 270.464 104.179 251.107C78.4621 231.75 73.147 193.342 92.3056 165.318C111.464 137.294 147.851 130.27 173.568 149.626C199.284 168.983 204.599 207.391 185.441 235.415Z" fill="#00FFEF" stroke="#4D4D4D" stroke-width="5" stroke-miterlimit="10"/>
<path d="M86.1821 183.516C98.429 195.154 112.606 207.433 128.844 219.65C145.082 231.866 160.704 242.029 175.144 250.465" fill="#00FFEF"/>
<path d="M86.1821 183.516C98.429 195.154 112.606 207.433 128.844 219.65C145.082 231.866 160.704 242.029 175.144 250.465" stroke="#4D4D4D" stroke-width="5" stroke-miterlimit="10"/>
</svg>
