<svg width="328" height="119" viewBox="0 0 328 119" fill="none" xmlns="http://www.w3.org/2000/svg">
<path d="M108.555 89.2924L87.3987 115.391L3 29.0982L24.1561 3L108.555 89.2924Z" fill="#FF9900" stroke="#4B3B8A" stroke-width="4" stroke-miterlimit="10"/>
<path d="M3 89.2924L24.1561 115.391L108.555 29.0982L87.3987 3L3 89.2924Z" fill="#FF9900" stroke="#4B3B8A" stroke-width="4" stroke-miterlimit="10"/>
<path d="M219.679 89.2924L198.53 115.391L114.132 29.0982L135.28 3L219.679 89.2924Z" fill="#FF9900" stroke="#4B3B8A" stroke-width="4" stroke-miterlimit="10"/>
<path d="M114.132 89.2924L135.28 115.391L219.679 29.0982L198.53 3L114.132 89.2924Z" fill="#FF9900" stroke="#4B3B8A" stroke-width="4" stroke-miterlimit="10"/>
<path d="M325 89.2924L303.844 115.391L219.445 29.0982L240.601 3L325 89.2924Z" fill="#FF9900" stroke="#4B3B8A" stroke-width="4" stroke-miterlimit="10"/>
<path d="M219.445 89.2924L240.601 115.391L325 29.0982L303.844 3L219.445 89.2924Z" fill="#FF9900" stroke="#4B3B8A" stroke-width="4" stroke-miterlimit="10"/>
</svg>
