<svg width="521" height="844" viewBox="0 0 521 844" fill="none" xmlns="http://www.w3.org/2000/svg">
<g clip-path="url(#clip0_282_255)">
<path d="M485.05 168.176H37.7915V467.947H485.05V168.176Z" fill="#F38EBA"/>
<g filter="url(#filter0_i_282_255)">
<path d="M446.502 191.898H68.8975V444.229H446.502V191.898Z" fill="#9CA4CE"/>
</g>
<path d="M446.502 191.898H68.8975V444.229H446.502V191.898Z" stroke="#9CA5CF" stroke-width="18" stroke-miterlimit="10"/>
<path d="M37.2983 467.947H485.544L504.937 554.488H17.9045L37.2983 467.947Z" fill="#E96BA8"/>
<path d="M504.312 554.489H18.5293V844H504.312V554.489Z" fill="#F38EBA"/>
<path d="M500.084 16.9514H22.7576V130.258H500.084V16.9514Z" fill="#F38EBA"/>
<path d="M342.933 534.414C357.593 534.414 369.477 529.821 369.477 524.154C369.477 518.488 357.593 513.894 342.933 513.894C328.273 513.894 316.389 518.488 316.389 524.154C316.389 529.821 328.273 534.414 342.933 534.414Z" fill="#795BA6"/>
<path d="M406.357 512.11C421.017 512.11 432.901 507.516 432.901 501.85C432.901 496.183 421.017 491.59 406.357 491.59C391.697 491.59 379.813 496.183 379.813 501.85C379.813 507.516 391.697 512.11 406.357 512.11Z" fill="#795BA6"/>
<path d="M278.569 511.218C293.229 511.218 305.113 506.624 305.113 500.958C305.113 495.291 293.229 490.698 278.569 490.698C263.909 490.698 252.025 495.291 252.025 500.958C252.025 506.624 263.909 511.218 278.569 511.218Z" fill="#795BA6"/>
<path d="M361.49 522.593C361.49 527.152 353.076 530.846 342.698 530.846C332.32 530.846 323.906 527.152 323.906 522.593C323.906 522.517 323.906 522.446 323.91 522.37H323.877L324.108 511.218H361.486L361.279 521.344C361.415 521.75 361.49 522.169 361.49 522.593Z" fill="#CE749E"/>
<path d="M342.698 519.694C353.077 519.694 361.49 515.999 361.49 511.441C361.49 506.883 353.077 503.188 342.698 503.188C332.319 503.188 323.906 506.883 323.906 511.441C323.906 515.999 332.319 519.694 342.698 519.694Z" fill="#F38EBA"/>
<path d="M425.281 498.977C425.351 499.263 425.384 499.548 425.384 499.843C425.384 504.402 416.97 508.095 406.592 508.095C396.214 508.095 387.8 504.402 387.8 499.843C387.8 499.553 387.832 499.267 387.903 498.986L388.11 488.913H425.488L425.281 498.977Z" fill="#4BACAC"/>
<path d="M406.592 496.943C416.971 496.943 425.384 493.248 425.384 488.69C425.384 484.132 416.971 480.438 406.592 480.438C396.213 480.438 387.8 484.132 387.8 488.69C387.8 493.248 396.213 496.943 406.592 496.943Z" fill="#57C4C4"/>
<path d="M297.39 497.728C297.526 498.129 297.596 498.535 297.596 498.95C297.596 503.509 289.182 507.203 278.804 507.203C268.426 507.203 260.011 503.509 260.011 498.95C260.011 498.874 260.011 498.803 260.016 498.727H259.993L260.223 487.575H297.601L297.39 497.728Z" fill="#2EAAD2"/>
<path d="M278.804 496.051C289.183 496.051 297.596 492.356 297.596 487.798C297.596 483.24 289.183 479.545 278.804 479.545C268.425 479.545 260.011 483.24 260.011 487.798C260.011 492.356 268.425 496.051 278.804 496.051Z" fill="#33C6F4"/>
<path d="M471.191 589.952H409.176V631.885H471.191V589.952Z" fill="#F38FBA" stroke="#ABAED8" stroke-width="3" stroke-miterlimit="10"/>
<path d="M456.392 604.004H451.694V617.833H456.392V604.004Z" fill="#795BA6"/>
<path d="M433.606 620.063C438.925 620.063 443.237 616.069 443.237 611.142C443.237 606.214 438.925 602.22 433.606 602.22C428.287 602.22 423.975 606.214 423.975 611.142C423.975 616.069 428.287 620.063 433.606 620.063Z" fill="#ABAED7" stroke="#795BA6" stroke-width="2" stroke-miterlimit="10"/>
<path d="M430.083 610.695V611.588H437.13V610.695H430.083Z" fill="#795BA6"/>
<path d="M449.345 533.522C453.237 533.522 456.392 532.624 456.392 531.515C456.392 530.406 453.237 529.508 449.345 529.508C445.453 529.508 442.298 530.406 442.298 531.515C442.298 532.624 445.453 533.522 449.345 533.522Z" fill="#FFDE17"/>
<path d="M442.377 529.062L442.288 531.738H456.349L456.439 529.062H442.377Z" fill="#FFDE17"/>
<path d="M449.345 530.846C453.237 530.846 456.392 529.947 456.392 528.838C456.392 527.73 453.237 526.831 449.345 526.831C445.453 526.831 442.298 527.73 442.298 528.838C442.298 529.947 445.453 530.846 449.345 530.846Z" fill="#FFDE17"/>
<path d="M449.345 530.4C452.718 530.4 455.452 529.701 455.452 528.838C455.452 527.976 452.718 527.277 449.345 527.277C445.972 527.277 443.237 527.976 443.237 528.838C443.237 529.701 445.972 530.4 449.345 530.4Z" fill="#FBB040"/>
<path d="M448.405 529.954C452.297 529.954 455.452 529.055 455.452 527.946C455.452 526.837 452.297 525.939 448.405 525.939C444.513 525.939 441.358 526.837 441.358 527.946C441.358 529.055 444.513 529.954 448.405 529.954Z" fill="#FFDE17"/>
<path d="M441.302 525.493L441.217 528.169H455.278L455.363 525.493H441.302Z" fill="#FFDE17"/>
<path d="M448.405 527.277C452.297 527.277 455.452 526.378 455.452 525.27C455.452 524.161 452.297 523.262 448.405 523.262C444.513 523.262 441.358 524.161 441.358 525.27C441.358 526.378 444.513 527.277 448.405 527.277Z" fill="#FFDE17"/>
<path d="M448.405 526.831C451.778 526.831 454.513 526.132 454.513 525.27C454.513 524.407 451.778 523.708 448.405 523.708C445.032 523.708 442.298 524.407 442.298 525.27C442.298 526.132 445.032 526.831 448.405 526.831Z" fill="#FBB040"/>
<path d="M449.345 526.831C453.237 526.831 456.392 525.932 456.392 524.824C456.392 523.715 453.237 522.816 449.345 522.816C445.453 522.816 442.298 523.715 442.298 524.824C442.298 525.932 445.453 526.831 449.345 526.831Z" fill="#FFDE17"/>
<path d="M442.42 522.37L442.335 525.047H456.397L456.481 522.37H442.42Z" fill="#FFDE17"/>
<path d="M449.345 524.154C453.237 524.154 456.392 523.256 456.392 522.147C456.392 521.038 453.237 520.14 449.345 520.14C445.453 520.14 442.298 521.038 442.298 522.147C442.298 523.256 445.453 524.154 449.345 524.154Z" fill="#FFDE17"/>
<path d="M449.345 523.708C452.718 523.708 455.452 523.009 455.452 522.147C455.452 521.285 452.718 520.586 449.345 520.586C445.972 520.586 443.237 521.285 443.237 522.147C443.237 523.009 445.972 523.708 449.345 523.708Z" fill="#FBB040"/>
<path d="M459.68 539.767C463.572 539.767 466.728 538.869 466.728 537.76C466.728 536.651 463.572 535.753 459.68 535.753C455.788 535.753 452.633 536.651 452.633 537.76C452.633 538.869 455.788 539.767 459.68 539.767Z" fill="#FFDE17"/>
<path d="M452.755 534.86L452.671 537.537H466.732L466.817 534.86H452.755Z" fill="#FFDE17"/>
<path d="M459.68 537.091C463.572 537.091 466.728 536.192 466.728 535.083C466.728 533.975 463.572 533.076 459.68 533.076C455.788 533.076 452.633 533.975 452.633 535.083C452.633 536.192 455.788 537.091 459.68 537.091Z" fill="#FFDE17"/>
<path d="M459.681 536.645C463.054 536.645 465.788 535.946 465.788 535.084C465.788 534.221 463.054 533.522 459.681 533.522C456.307 533.522 453.573 534.221 453.573 535.084C453.573 535.946 456.307 536.645 459.681 536.645Z" fill="#FBB040"/>
<path d="M474.336 537.973C474.745 536.94 472.105 535.04 468.438 533.729C464.771 532.419 461.467 532.193 461.057 533.226C460.648 534.259 463.288 536.159 466.955 537.47C470.622 538.781 473.926 539.006 474.336 537.973Z" fill="#FFDE17"/>
<path d="M462.142 530.689L461.043 533.188L474.324 537.943L475.424 535.445L462.142 530.689Z" fill="#FFDE17"/>
<path d="M475.437 535.474C475.846 534.441 473.206 532.541 469.539 531.23C465.872 529.919 462.568 529.694 462.158 530.727C461.749 531.76 464.389 533.66 468.056 534.971C471.723 536.281 475.027 536.507 475.437 535.474Z" fill="#FFDE17"/>
<path d="M474.411 535.069C474.738 534.244 472.444 532.66 469.287 531.532C466.13 530.403 463.306 530.158 462.979 530.983C462.652 531.808 464.945 533.392 468.102 534.521C471.259 535.649 474.083 535.895 474.411 535.069Z" fill="#FBB040"/>
<path d="M459.812 518.507L458.426 515.924C458.149 515.402 457.693 514.983 457.139 514.733L454.315 513.453L457.139 512.172C457.693 511.923 458.144 511.503 458.426 510.981L459.812 508.398L461.198 510.981C461.475 511.503 461.931 511.923 462.485 512.172L465.309 513.453L462.485 514.733C461.931 514.983 461.48 515.402 461.198 515.924L459.812 518.507Z" fill="#FFF200"/>
<path d="M469.067 511.169L468.485 510.027C468.217 509.5 467.771 509.077 467.221 508.813L466.042 508.256L467.221 507.698C467.771 507.435 468.217 507.011 468.485 506.485L469.067 505.343L469.65 506.485C469.918 507.011 470.364 507.435 470.914 507.698L472.093 508.256L470.914 508.813C470.364 509.077 469.918 509.5 469.65 510.027L469.067 511.169Z" fill="#FFF200"/>
<path d="M469.829 528.227L469.246 527.085C468.978 526.559 468.532 526.135 467.982 525.872L466.803 525.314L467.982 524.756C468.532 524.493 468.978 524.07 469.246 523.543L469.829 522.401L470.411 523.543C470.679 524.07 471.125 524.493 471.675 524.756L472.854 525.314L471.675 525.872C471.125 526.135 470.679 526.559 470.411 527.085L469.829 528.227Z" fill="#FFF200"/>
<path d="M38.3225 352.126L39.2815 365.452L49.6111 363.576L43.5855 373.96L52.9215 381.004L42.7276 383.588L46.7052 396.257L38.4005 387.521L38.3225 352.126Z" fill="#795EA5" stroke="#7A6EA1" stroke-width="4" stroke-miterlimit="10" stroke-linejoin="round"/>
<path d="M485.013 250.287L470.885 260.418L476.025 244.399L461.485 234.875L479.201 234.5L484.341 218.481L485.013 250.287Z" fill="#CB9AC6" stroke="#7A6EA1" stroke-width="4" stroke-miterlimit="10" stroke-linejoin="round"/>
<path d="M377.656 80.8892C375.843 86.9203 380.301 93.3976 387.621 95.3559C394.941 97.3142 402.345 94.0132 404.163 87.9776L377.656 80.8848V80.8892Z" fill="#FFEEA7" stroke="#7A6EA1" stroke-width="4" stroke-miterlimit="10" stroke-linejoin="round"/>
<path d="M409.007 89.2801C407.193 95.3112 411.652 101.788 418.971 103.747C426.291 105.705 433.695 102.404 435.513 96.3684L409.007 89.2756V89.2801Z" fill="#FFEEA7" stroke="#7A6EA1" stroke-width="4" stroke-miterlimit="10" stroke-linejoin="round"/>
<path d="M392.737 84.9263C390.924 90.9575 395.382 97.4347 402.702 99.393C410.022 101.351 417.426 98.0503 419.244 92.0147L392.737 84.9219V84.9263Z" fill="#FFEEA7" stroke="#7A6EA1" stroke-width="4" stroke-miterlimit="10" stroke-linejoin="round"/>
<path d="M379.207 59.9275C383.233 46.5404 401.424 39.684 419.836 44.6088C438.243 49.5337 449.904 64.3795 445.878 77.7622C435.528 75.9555 424.144 73.5377 411.972 70.2768C399.902 67.0426 388.956 63.4873 379.212 59.9231L379.207 59.9275Z" fill="#FFEEA7" stroke="#7A6EA1" stroke-width="4" stroke-miterlimit="10" stroke-linejoin="round"/>
<path d="M355.59 74.2201C363.182 69.4068 370.779 64.598 378.371 59.7847C388.34 63.4694 399.545 67.1407 411.91 70.4506C424.379 73.7919 436.049 76.2409 446.662 78.0565C450.444 85.9121 454.226 93.7677 458.008 101.623C443.247 100.356 424.99 97.7022 404.628 92.193C384.986 86.8801 368.533 80.3003 355.594 74.2201H355.59Z" fill="#FFEEA7" stroke="#7A6EA1" stroke-width="4" stroke-miterlimit="10" stroke-linejoin="round"/>
<path d="M189.723 96.4398L176.817 94.999L167.257 103.301L168.784 91.1314L159.979 82.1159L172.885 83.5568L182.446 75.2595L180.919 87.4244L189.723 96.4398Z" fill="#57C4C4" stroke="#7A6EA1" stroke-width="4" stroke-miterlimit="10" stroke-linejoin="round"/>
<path d="M252.65 105.17L218.931 73.3771C210.658 65.575 210.658 52.9239 218.931 45.1218C227.205 37.3197 240.622 37.3197 248.9 45.1218L282.619 76.9146L252.65 105.17Z" fill="#F1709E" stroke="#7A6EA1" stroke-width="4" stroke-miterlimit="10" stroke-linejoin="round"/>
<path d="M252.72 105.17L286.438 73.3771C294.712 65.575 294.712 52.9239 286.438 45.1218C278.165 37.3197 264.747 37.3197 256.469 45.1218L222.751 76.9146L252.72 105.17Z" fill="#F1709E" stroke="#7A6EA1" stroke-width="4" stroke-miterlimit="10" stroke-linejoin="round"/>
<path d="M100.201 70.1787L86.0692 66.4004L77.8898 77.9005L77.3354 64.0628L63.2083 60.28L76.9972 55.5069L76.4428 41.6692L85.5195 52.5582L99.3084 47.7851L91.1243 59.2897L100.201 70.1787Z" fill="#FFDF99" stroke="#7A6EA1" stroke-width="4" stroke-miterlimit="10" stroke-linejoin="round"/>
<path d="M199.495 670.075L187.309 674.326L182.798 685.817L178.288 674.326L166.101 670.075L178.288 665.819L182.798 654.328L187.309 665.819L199.495 670.075Z" fill="#57C4C4" stroke="#7A6EA1" stroke-width="4" stroke-miterlimit="10" stroke-linejoin="round"/>
<path d="M295.628 809.852L302.595 789.782L284.507 777.087H306.903L313.866 757.312L320.744 777.533H343.14L324.991 789.827L331.869 809.928L313.776 797.477L295.628 809.852Z" fill="#F3C39A" stroke="#7A6EA1" stroke-width="4" stroke-miterlimit="10" stroke-linejoin="round"/>
<path d="M309.186 646.891L303.229 664.052L295.139 647.681L278.874 657.222L283.84 639.776L264.874 637.224L280.57 626.871L267.782 613.425L286.866 615.005L286.236 596.956L299.776 609.732L311.601 595.524L313.264 613.515L332.01 609.799L321.016 624.587L337.911 633.102L319.405 637.769L326.541 654.528L309.186 646.891Z" fill="#CB9AC6" stroke="#7A6EA1" stroke-width="4" stroke-miterlimit="10" stroke-linejoin="round"/>
<path d="M87.6384 780.544L74.432 796.193L21.7476 744.451L34.9539 728.802L87.6384 780.544Z" fill="#795EA5" stroke="#7A6EA1" stroke-width="4" stroke-miterlimit="10"/>
<path d="M21.7476 780.544L34.9539 796.193L87.6384 744.451L74.432 728.802L21.7476 780.544Z" fill="#795EA5" stroke="#7A6EA1" stroke-width="4" stroke-miterlimit="10"/>
<path d="M157.006 780.544L143.804 796.193L91.1196 744.451L104.321 728.802L157.006 780.544Z" fill="#795EA5" stroke="#7A6EA1" stroke-width="4" stroke-miterlimit="10"/>
<path d="M91.1196 780.544L104.321 796.193L157.006 744.451L143.804 728.802L91.1196 780.544Z" fill="#795EA5" stroke="#7A6EA1" stroke-width="4" stroke-miterlimit="10"/>
<path d="M222.751 780.544L209.545 796.193L156.86 744.451L170.066 728.802L222.751 780.544Z" fill="#795EA5" stroke="#7A6EA1" stroke-width="4" stroke-miterlimit="10"/>
<path d="M156.86 780.544L170.066 796.193L222.751 744.451L209.545 728.802L156.86 780.544Z" fill="#795EA5" stroke="#7A6EA1" stroke-width="4" stroke-miterlimit="10"/>
<path d="M443.214 712.016L409.496 680.223C401.222 672.421 401.222 659.77 409.496 651.968C417.769 644.166 431.187 644.166 439.465 651.968L473.183 683.761L443.214 712.016Z" fill="#F1709E" stroke="#7A6EA1" stroke-width="4" stroke-miterlimit="10" stroke-linejoin="round"/>
<path d="M443.284 712.016L477.003 680.223C485.276 672.421 485.276 659.77 477.003 651.968C468.729 644.166 455.311 644.166 447.033 651.968L413.315 683.761L443.284 712.016Z" fill="#F1709E" stroke="#7A6EA1" stroke-width="4" stroke-miterlimit="10" stroke-linejoin="round"/>
<path d="M421.786 747.966L407.654 744.188L399.475 755.692L398.92 741.85L384.788 738.067L398.577 733.294L398.028 719.457L407.1 730.346L420.893 725.572L412.709 737.077L421.786 747.966Z" fill="#FFDF99" stroke="#7A6EA1" stroke-width="4" stroke-miterlimit="10" stroke-linejoin="round"/>
<path d="M125.413 632.662C162.013 611.307 187.989 588.287 183.431 581.245C178.874 574.202 145.509 585.805 108.909 607.159C72.309 628.514 46.3335 651.534 50.891 658.576C55.4485 665.619 88.8133 654.016 125.413 632.662Z" stroke="#7A6EA1" stroke-width="4" stroke-miterlimit="10"/>
<path d="M153.67 598.611C166.862 618.703 161.192 644.541 141.004 656.326C120.816 668.107 93.76 661.371 80.5678 641.28C67.3755 621.188 73.0461 595.35 93.2338 583.565C113.422 571.783 140.478 578.519 153.67 598.611Z" fill="#42C2F1" stroke="#7A6EA1" stroke-width="4" stroke-miterlimit="10"/>
<path d="M90.9316 650.166C102.155 645.201 114.352 639.129 127.098 631.693C139.839 624.257 151.044 616.664 160.759 609.406" stroke="#7A6EA1" stroke-width="4" stroke-miterlimit="10"/>
<path d="M26.5162 130.258H8.1936V16.9514C8.1936 12.2674 10.1903 8.0296 13.4226 4.96497C16.6502 1.89588 21.1134 0 26.0464 0H494.916C504.778 0 512.769 7.58797 512.769 16.9514V130.258H494.447V16.9514H26.5162V130.258Z" fill="#ABAED7"/>
<path d="M520.756 478.653V826.603C520.756 836.211 512.553 844 502.433 844V478.653H520.756Z" fill="#ABAED7"/>
<path d="M37.7916 168.176H19.469V467.947H37.7916V168.176Z" fill="#ABAED7"/>
<path d="M0.206787 479.099H18.5294V844C8.40966 844 0.206787 836.211 0.206787 826.603V479.099Z" fill="#ABAED7"/>
<path d="M501.493 168.176H483.171V467.947H501.493V168.176Z" fill="#ABAED7"/>
<path d="M18.5293 554.488V479.139L37.7915 392.598V467.947L18.5293 554.488Z" fill="#D05F97"/>
<path d="M502.433 554.488V478.742L483.171 392.201L483.133 467.947L502.433 554.488Z" fill="#D05F97"/>
<path d="M512.722 130.258L501.738 168.175H37.8291L37.6882 167.814L37.7915 168.175H19.2622L8.27808 130.258H512.722Z" fill="#9CA6D0"/>
<path d="M18.5293 479.099H0L19.2622 392.558H37.7915L18.5293 479.099Z" fill="#9CA6D0"/>
<path d="M502.471 478.653H521L501.738 392.112H483.208L502.471 478.653Z" fill="#9CA6D0"/>
<path d="M130.478 517.617C156.178 517.617 177.012 512.677 177.012 506.584C177.012 500.491 156.178 495.551 130.478 495.551C104.778 495.551 83.9438 500.491 83.9438 506.584C83.9438 512.677 104.778 517.617 130.478 517.617Z" fill="#7A5CA6" stroke="#75CCD4" stroke-width="7" stroke-miterlimit="10"/>
<path d="M133.215 479.922H126.828V514.858H133.215V479.922Z" fill="#48A8A8"/>
<path d="M130.109 487.575C139.061 487.575 146.317 480.784 146.317 472.408C146.317 464.031 139.061 457.241 130.109 457.241C121.157 457.241 113.901 464.031 113.901 472.408C113.901 480.784 121.157 487.575 130.109 487.575Z" fill="#FEE25D"/>
<path d="M138.236 463.274C138.58 462.365 137.744 461.248 136.369 460.779C134.994 460.311 133.601 460.667 133.258 461.576C132.914 462.485 133.75 463.602 135.125 464.071C136.5 464.54 137.893 464.183 138.236 463.274Z" fill="#E6E7E8"/>
<g filter="url(#filter1_i_282_255)">
<path d="M349.078 276.669H440.456V196.556H349.078V276.669Z" fill="#B3E1E3"/>
<path d="M349.078 436.895H440.456V356.782H349.078V436.895Z" fill="#B3E1E3"/>
<path d="M257.7 356.782H349.078V276.669H257.7V356.782Z" fill="#B3E1E3"/>
<path d="M74.9441 356.782H166.322V276.669H74.9441L74.9441 356.782Z" fill="#B3E1E3"/>
<path d="M166.322 276.669H257.7V196.556H166.322V276.669Z" fill="#B3E1E3"/>
<path d="M166.322 436.895H257.7V356.782H166.322V436.895Z" fill="#B3E1E3"/>
<path d="M349.078 356.782H440.456V276.669H349.078V356.782Z" fill="#8AD3D9"/>
<path d="M74.9441 276.669H166.322V196.556H74.9441L74.9441 276.669Z" fill="#8AD3D9"/>
<path d="M166.322 356.782H257.7V276.669H166.322V356.782Z" fill="#8AD3D9"/>
<path d="M257.7 276.669H349.078V196.556H257.7V276.669Z" fill="#8AD3D9"/>
<path d="M74.9441 436.895H166.322V356.782H74.9441L74.9441 436.895Z" fill="#8AD3D9"/>
<path d="M257.7 436.895H349.078V356.782H257.7V436.895Z" fill="#8AD3D9"/>
</g>
</g>
<defs>
<filter id="filter0_i_282_255" x="59.8975" y="182.898" width="395.605" height="274.33" filterUnits="userSpaceOnUse" color-interpolation-filters="sRGB">
<feFlood flood-opacity="0" result="BackgroundImageFix"/>
<feBlend mode="normal" in="SourceGraphic" in2="BackgroundImageFix" result="shape"/>
<feColorMatrix in="SourceAlpha" type="matrix" values="0 0 0 0 0 0 0 0 0 0 0 0 0 0 0 0 0 0 127 0" result="hardAlpha"/>
<feOffset dy="4"/>
<feGaussianBlur stdDeviation="2"/>
<feComposite in2="hardAlpha" operator="arithmetic" k2="-1" k3="1"/>
<feColorMatrix type="matrix" values="0 0 0 0 0 0 0 0 0 0 0 0 0 0 0 0 0 0 0.25 0"/>
<feBlend mode="normal" in2="shape" result="effect1_innerShadow_282_255"/>
</filter>
<filter id="filter1_i_282_255" x="74.9441" y="196.556" width="365.512" height="244.339" filterUnits="userSpaceOnUse" color-interpolation-filters="sRGB">
<feFlood flood-opacity="0" result="BackgroundImageFix"/>
<feBlend mode="normal" in="SourceGraphic" in2="BackgroundImageFix" result="shape"/>
<feColorMatrix in="SourceAlpha" type="matrix" values="0 0 0 0 0 0 0 0 0 0 0 0 0 0 0 0 0 0 127 0" result="hardAlpha"/>
<feOffset dy="4"/>
<feGaussianBlur stdDeviation="2"/>
<feComposite in2="hardAlpha" operator="arithmetic" k2="-1" k3="1"/>
<feColorMatrix type="matrix" values="0 0 0 0 0 0 0 0 0 0 0 0 0 0 0 0 0 0 0.25 0"/>
<feBlend mode="normal" in2="shape" result="effect1_innerShadow_282_255"/>
</filter>
<clipPath id="clip0_282_255">
<rect width="521" height="844" fill="white"/>
</clipPath>
</defs>
</svg>
